<svg xmlns="http://www.w3.org/2000/svg" width="1200" height="720" viewBox="0 0 1200 720" role="img" aria-labelledby="title description">
<title id="title">India government performance measures</title>
<desc id="description">Ten recorded India Today Group Karvy Insights Mood of the Nation government-performance observations from July 2016 through August 2025. This is government performance, not Narendra Modi personal approval.</desc>
<rect width="1200" height="720" fill="#FBFBF2"/>
<text x="135" y="54" fill="#FFB400" font-family="Arial, sans-serif" font-size="15" font-weight="700" letter-spacing="2">POLLITIK · INDIA</text>
<text x="135" y="102" fill="#242424" font-family="Georgia, Times New Roman, serif" font-size="36" font-weight="700">India government performance measures</text>
<text x="135" y="134" fill="#515151" font-family="Arial, sans-serif" font-size="17">India Today–Karvy Insights · July 2016–August 2025</text>
<text x="135" y="163" fill="#515151" font-family="Arial, sans-serif" font-size="14">10 observations · government performance · not PM personal approval</text>
<line x1="135" y1="570.0" x2="1090" y2="570.0" stroke="#DEDCCF" stroke-width="1"/>
<text x="120" y="575.0" text-anchor="end" fill="#515151" font-family="Arial, sans-serif" font-size="14">45%</text>
<line x1="135" y1="510.0" x2="1090" y2="510.0" stroke="#DEDCCF" stroke-width="1"/>
<text x="120" y="515.0" text-anchor="end" fill="#515151" font-family="Arial, sans-serif" font-size="14">50%</text>
<line x1="135" y1="450.0" x2="1090" y2="450.0" stroke="#DEDCCF" stroke-width="1"/>
<text x="120" y="455.0" text-anchor="end" fill="#515151" font-family="Arial, sans-serif" font-size="14">55%</text>
<line x1="135" y1="390.0" x2="1090" y2="390.0" stroke="#DEDCCF" stroke-width="1"/>
<text x="120" y="395.0" text-anchor="end" fill="#515151" font-family="Arial, sans-serif" font-size="14">60%</text>
<line x1="135" y1="330.0" x2="1090" y2="330.0" stroke="#DEDCCF" stroke-width="1"/>
<text x="120" y="335.0" text-anchor="end" fill="#515151" font-family="Arial, sans-serif" font-size="14">65%</text>
<line x1="135" y1="270.0" x2="1090" y2="270.0" stroke="#DEDCCF" stroke-width="1"/>
<text x="120" y="275.0" text-anchor="end" fill="#515151" font-family="Arial, sans-serif" font-size="14">70%</text>
<line x1="135" y1="210.0" x2="1090" y2="210.0" stroke="#DEDCCF" stroke-width="1"/>
<text x="120" y="215.0" text-anchor="end" fill="#515151" font-family="Arial, sans-serif" font-size="14">75%</text>
<line x1="180.7" y1="570" x2="180.7" y2="577" stroke="#515151" stroke-width="1"/>
<text x="180.7" y="599" text-anchor="middle" fill="#515151" font-family="Arial, sans-serif" font-size="14">2017</text>
<line x1="286.1" y1="570" x2="286.1" y2="577" stroke="#515151" stroke-width="1"/>
<text x="286.1" y="599" text-anchor="middle" fill="#515151" font-family="Arial, sans-serif" font-size="14">2018</text>
<line x1="391.6" y1="570" x2="391.6" y2="577" stroke="#515151" stroke-width="1"/>
<text x="391.6" y="599" text-anchor="middle" fill="#515151" font-family="Arial, sans-serif" font-size="14">2019</text>
<line x1="497.1" y1="570" x2="497.1" y2="577" stroke="#515151" stroke-width="1"/>
<text x="497.1" y="599" text-anchor="middle" fill="#515151" font-family="Arial, sans-serif" font-size="14">2020</text>
<line x1="602.8" y1="570" x2="602.8" y2="577" stroke="#515151" stroke-width="1"/>
<text x="602.8" y="599" text-anchor="middle" fill="#515151" font-family="Arial, sans-serif" font-size="14">2021</text>
<line x1="708.3" y1="570" x2="708.3" y2="577" stroke="#515151" stroke-width="1"/>
<text x="708.3" y="599" text-anchor="middle" fill="#515151" font-family="Arial, sans-serif" font-size="14">2022</text>
<line x1="813.8" y1="570" x2="813.8" y2="577" stroke="#515151" stroke-width="1"/>
<text x="813.8" y="599" text-anchor="middle" fill="#515151" font-family="Arial, sans-serif" font-size="14">2023</text>
<line x1="919.2" y1="570" x2="919.2" y2="577" stroke="#515151" stroke-width="1"/>
<text x="919.2" y="599" text-anchor="middle" fill="#515151" font-family="Arial, sans-serif" font-size="14">2024</text>
<line x1="1025.0" y1="570" x2="1025.0" y2="577" stroke="#515151" stroke-width="1"/>
<text x="1025.0" y="599" text-anchor="middle" fill="#515151" font-family="Arial, sans-serif" font-size="14">2025</text>
<text transform="translate(34 390.0) rotate(-90)" text-anchor="middle" fill="#515151" font-family="Arial, sans-serif" font-size="14">Positive rating (%)</text>
<path d="M 135.0 450.0 L 290.2 390.0 L 342.5 438.0 L 393.6 462.0 L 456.9 282.0 L 501.1 366.0 L 557.2 246.0 L 606.9 318.0 L 713.8 405.6 L 1090.0 481.2" fill="none" stroke="#00A6ED" stroke-width="4" stroke-linecap="round" stroke-linejoin="round"/>
<line x1="135" y1="638" x2="1090" y2="638" stroke="#515151" stroke-width="1"/>
<text x="135" y="669" fill="#515151" font-family="Arial, sans-serif" font-size="13">SOURCE: India Today Group–Karvy Insights Mood of the Nation</text>
<text x="1090" y="669" text-anchor="end" fill="#515151" font-family="Arial, sans-serif" font-size="13">10 records · Pollitik master</text>
</svg>